PathFileType	4	(X/Y/Z)	pose_F01_0-65.trc
DataRate	CameraRate	NumFrames	NumMarkers	Units	OrigDataRate	OrigDataStartFrame	OrigNumFrames
30	30	9	21	m	30	21	65
Frame#	Time	CHip			RHip			RKnee			RAnkle			RBigToe			RSmallToe			RHeel			LHip			LKnee			LAnkle			LBigToe			LSmallToe			LHeel			Neck			Nose			RShoulder			RElbow			RWrist			LShoulder			LElbow			LWrist			
		X1	Y1	Z1	X2	Y2	Z2	X3	Y3	Z3	X4	Y4	Z4	X5	Y5	Z5	X6	Y6	Z6	X7	Y7	Z7	X8	Y8	Z8	X9	Y9	Z9	X10	Y10	Z10	X11	Y11	Z11	X12	Y12	Z12	X13	Y13	Z13	X14	Y14	Z14	X15	Y15	Z15	X16	Y16	Z16	X17	Y17	Z17	X18	Y18	Z18	X19	Y19	Z19	X20	Y20	Z20	X21	Y21	Z21	
21	0.7	-0.26198006541255864	1.8392942428648837	-0.5431618085838055	-0.2724283472105043	1.8511384190566182	-0.4807795836596433	-0.3563892842270522	1.7410517392432696	-0.4700497493840259	-0.2852641586709868	1.5994259955851917	-0.3900052099100851	-0.5678911029948313	1.5532928402829176	-1.23825111304939	-0.5859414310925272	1.5603427942711092	-1.2203756500684597	-0.35100676133082404	1.6729085277491074	-0.30257986526033515	-0.24072776195162124	1.8343286690354321	-0.6000798776180511	-0.2618941455370521	1.7015825916986016	-0.5661294378988042	-0.24874426977789557	1.6109874013768	-0.4284643516778206	-0.25057695076631215	1.5614486880116056	-0.4108154771416426	-0.23839003283671067	1.5657565420905037	-0.43391038924803405	-0.24762689809564273	1.6092097711917197	-0.4101264680878077	-0.23350620097693103	1.9854973401973177	-0.5685024349771247	-0.25251012674972295	2.0523059742748493	-0.5826368093310595	-0.25936499507794725	1.9935815874350693	-0.48738567752928813	-0.2863814679689505	1.916238162153334	-0.42126379341649584	-0.32743425970071577	1.8585395441993484	-0.4096320029899881	-1.4325486142902084	1.8822447581072501	0.636274487914584	-0.19493790406005443	1.9006254193823444	-0.6904076974277168	-0.19683591211855483	1.8268944701994583	-0.7155651573698087
22	0.7333333333333333	-0.2610685756953923	1.8382902897490516	-0.5400492300619785	-0.2747787469444984	1.845769445453953	-0.477888378467566	-0.35215767920567376	1.7372991245945726	-0.4651300050043724	-0.2852641586709868	1.5994259955851917	-0.3900052099100851	-0.5678911029948313	1.5532928402829176	-1.23825111304939	-0.5859414310925272	1.5603427942711092	-1.2203756500684597	-0.35100676133082404	1.6729085277491074	-0.30257986526033515	-0.2410254102004341	1.8354485804752938	-0.6002531303397796	-0.2597936915949605	1.6992934816869085	-0.5677969979963727	-0.25129975275219507	1.5922860466143598	-0.4518261289581374	-0.25438031080205653	1.5448957681925846	-0.4428940972953396	-0.24224404402656022	1.5497792192964155	-0.46393106264966255	-0.24644826248245633	1.5889973691747117	-0.4238929985909813	-0.23552137734797493	1.9847916397305592	-0.5747963277996101	-0.25048288589167017	2.055584491681454	-0.585855832707316	-0.2604499892904462	1.9946124855296403	-0.4908973771827658	-0.28700274480845234	1.9180769278072871	-0.41566849895352603	-0.34403075920890136	1.8776796280588468	-0.45853088508380896	-1.4277907970400177	1.8827836379515366	0.6248587408689925	-0.20197673061434046	1.904232385289231	-0.6840595909858843	-0.19887349094398346	1.8233354084525164	-0.7092020364356996
23	0.7666666666666667	-0.2621088748247146	1.837379029134774	-0.5393942406113741	-0.2771291466784924	1.8404004718512876	-0.4749971732754887	-0.34792607418429533	1.7335465099458753	-0.46021026062471887	-0.2852641586709868	1.5994259955851917	-0.3900052099100851	-0.5678911029948313	1.5532928402829176	-1.23825111304939	-0.5859414310925272	1.5603427942711092	-1.2203756500684597	-0.35100676133082404	1.6729085277491074	-0.30257986526033515	-0.2440604954561264	1.8338791424202534	-0.5974355068111801	-0.26200643201853163	1.6962705029676124	-0.5694240849011833	-0.2565618908897223	1.5852982381941259	-0.46957709431705236	-0.2679353422995222	1.5423299607032168	-0.4822602780592283	-0.2537881378930526	1.5481801387307228	-0.5008442745298067	-0.24531200992182467	1.589403257224308	-0.4324932804745207	-0.2395001487501151	1.9856840638238538	-0.5793914113049203	-0.24914605712358714	2.058144567404819	-0.5907982914913807	-0.2605033375263904	1.9921606446596014	-0.49058838356693396	-0.27798278011403665	1.9198408026768365	-0.3983655403182142	-0.33163852425978624	1.896299879631149	-0.45168178204572706	-0.2109335796933688	1.9818740156973755	-0.6709301795524053	-0.20495109696357447	1.8982961954160653	-0.6817515032735958	-0.202201513798045	1.8206058291091678	-0.7060811019900899
24	0.8	-0.26190828596540977	1.8392137669285002	-0.5396532062457621	-0.27491467450676615	1.8419171581831537	-0.4689409584478531	-0.34369446916291696	1.729793895297178	-0.45529051624506534	-0.2852641586709868	1.5994259955851917	-0.3900052099100851	-0.5678911029948313	1.5532928402829176	-1.23825111304939	-0.5859414310925272	1.5603427942711092	-1.2203756500684597	-0.35100676133082404	1.6729085277491074	-0.30257986526033515	-0.2427591534544837	1.835334244401512	-0.6028438315315675	-0.260297812132627	1.6972532538972829	-0.5668484537055034	-0.26182402902724955	1.5783104297738921	-0.4873280596759674	-0.2814903737969879	1.5397641532138489	-0.521626458823117	-0.265332231759545	1.5465810581650303	-0.537757486409951	-0.244175757361193	1.5898091452739045	-0.4410935623580601	-0.23841307148743054	1.9859633675066206	-0.5846368327241568	-0.2508676152358881	2.0620840189955882	-0.5883515257501384	-0.2601780839806325	1.9926009967449583	-0.4896241504788831	-0.27271136015002634	1.918594672002519	-0.3989566291339156	-0.31182593246582807	1.9099233575656274	-0.4634032659579429	-0.21056162634001205	1.9839498993677245	-0.6797997676619184	-0.20882436138988425	1.898747646960063	-0.6857147806493022	-0.2054024845841046	1.821592358079837	-0.7069472659158844
25	0.8333333333333334	-0.2591788840983189	1.8384961121319423	-0.5297916640712431	-0.275913077421277	1.8422031079113286	-0.46355145843335255	-0.33946286414153853	1.7260412806484808	-0.45037077186541186	-0.2852641586709868	1.5994259955851917	-0.3900052099100851	-0.5678911029948313	1.5532928402829176	-1.23825111304939	-0.5859414310925272	1.5603427942711092	-1.2203756500684597	-0.35100676133082404	1.6729085277491074	-0.30257986526033515	-0.24193014268533608	1.8334999157075547	-0.5994347452781639	-0.2612321969246068	1.7005211923683365	-0.5576681649767621	-0.2670861671647768	1.5713226213536582	-0.5050790250348823	-0.29504540529445356	1.537198345724481	-0.5609926395870056	-0.27687632562603737	1.5449819775993376	-0.5746706982900952	-0.24303950480056136	1.5902150333235008	-0.44969384424159947	-0.23829407319414572	1.9847901476614456	-0.584182185107259	-0.25689319443867126	2.06368765791213	-0.5817109270555776	-0.25939973935475186	1.9863442125133624	-0.4855302153261881	-0.2761209193691889	1.9111869995039323	-0.3816861668009206	-0.27792276980345665	1.9088070972120637	-0.4678593945910023	-0.210230461626202	1.9865396866017586	-0.6797681830682986	-0.20294412425023628	1.8998287096540998	-0.695919317708932	-0.20602576059310554	1.8188322152176561	-0.7101276426796451
26	0.8666666666666667	-0.25806859702448764	1.8415184901179622	-0.5355713361095208	-0.27208465374195945	1.8434240824892434	-0.4681282496005393	-0.34625823863930655	1.7408188767658686	-0.4494287470034754	-0.2852641586709868	1.5994259955851917	-0.3900052099100851	-0.5678911029948313	1.5532928402829176	-1.23825111304939	-0.5859414310925272	1.5603427942711092	-1.2203756500684597	-0.35100676133082404	1.6729085277491074	-0.30257986526033515	-0.23969761673517018	1.8351978480615116	-0.6019362686192314	-0.25895836822394097	1.6987774705517293	-0.551653131451553	-0.26453933455993883	1.5746922367719194	-0.5089660002377348	-0.29238283613378474	1.539331553130029	-0.5579239916811092	-0.2748748933237849	1.5465708000813394	-0.5726194493745291	-0.2419032522399297	1.590620921373097	-0.45829412612513887	-0.23863448101133566	1.9870308733106394	-0.5675670848770838	-0.2602099995028868	2.061847210314895	-0.5744157627262357	-0.258475773504778	1.9881776668539726	-0.4745530731847405	-0.26749013408415484	1.910906453551614	-0.38733311938821174	-0.28032629161145023	1.8931493308631222	-0.44679445568200393	-0.21196613314565455	1.9871937511647164	-0.6657913952682398	-0.20334901485668552	1.905513679383528	-0.6878055444029445	-0.20245216637939425	1.829706748368243	-0.7190576592257033
27	0.9	-0.2551444572953782	1.8421974812194564	-0.538261603918953	-0.2683048416524019	1.8477885493980102	-0.47618307016880324	-0.34625823863930655	1.7408188767658686	-0.4494287470034754	-0.2852641586709868	1.5994259955851917	-0.3900052099100851	-0.5678911029948313	1.5532928402829176	-1.23825111304939	-0.5859414310925272	1.5603427942711092	-1.2203756500684597	-0.35100676133082404	1.6729085277491074	-0.30257986526033515	-0.23682770487488058	1.838215580871958	-0.6045799806013683	-0.25857982916128625	1.6982002607384126	-0.5526899455100321	-0.26199250195510093	1.5780618521901806	-0.5128529754405873	-0.2897202669731159	1.5414647605355767	-0.5548553437752126	-0.2728734610215324	1.5481596225633412	-0.5705682004589632	-0.24076699967929804	1.5910268094226936	-0.4668944080086783	-0.23776045029649406	1.9870322972774535	-0.5557964211964942	-0.26022004239975516	2.0617319090601893	-0.5741166665506826	-0.26025232970135226	1.9910405680934986	-0.46431672062081425	-0.260688532889176	1.9107891611957997	-0.3905325940211155	-0.28813722082534315	1.8899121095496958	-0.42881837944280315	-0.21254957320583517	1.987325726591413	-0.6486297690269386	-0.20347325659602702	1.9073194096927595	-0.6795075858304961	-0.2006450319406446	1.8361734374454544	-0.7251669447823184
28	0.9333333333333333	-0.25406867383017767	1.8405180329180284	-0.5347102884106538	-0.26850316865139	1.8423493561656021	-0.4653135930397029	-0.34625823863930655	1.7408188767658686	-0.4494287470034754	-0.2852641586709868	1.5994259955851917	-0.3900052099100851	-0.5678911029948313	1.5532928402829176	-1.23825111304939	-0.5859414310925272	1.5603427942711092	-1.2203756500684597	-0.35100676133082404	1.6729085277491074	-0.30257986526033515	-0.23775907891141576	1.8400154541984861	-0.5994138944533517	-0.2582012900986315	1.697623050925096	-0.5537267595685113	-0.259445669350263	1.5814314676084416	-0.5167399506434397	-0.28705769781244705	1.5435979679411247	-0.5517866958693162	-0.27087202871927996	1.549748445045343	-0.5685169515433971	-0.2396307471186664	1.5914326974722899	-0.47549468989221766	-0.23888182272838696	1.9866097234490714	-0.5502767846471528	-0.2592590277055215	2.0607458573064505	-0.5710820807410016	-0.265113184910701	1.9917802618997138	-0.4551218652462866	-0.2663313679946785	1.9122114183985277	-0.3841231325063339	-0.293210013329388	1.87940158189161	-0.4346632132608682	-0.2130426739546187	1.9889209473455542	-0.6316931393846843	-0.204311889956769	1.9088235681937353	-0.6737980746247212	-0.20199335524529127	1.8425326442627523	-0.712171884597147
29	0.9666666666666667	-0.25408711651395743	1.8372600250589095	-0.5254779701769626	-0.26870149565037815	1.836910162933194	-0.4544441159106025	-0.34625823863930655	1.7408188767658686	-0.4494287470034754	-0.2852641586709868	1.5994259955851917	-0.3900052099100851	-0.5678911029948313	1.5532928402829176	-1.23825111304939	-0.5859414310925272	1.5603427942711092	-1.2203756500684597	-0.35100676133082404	1.6729085277491074	-0.30257986526033515	-0.23690497726312296	1.8398512010023726	-0.5959801124843725	-0.25782275103597685	1.6970458411117795	-0.5547635736269902	-0.2568988367454251	1.5848010830267028	-0.5206269258462921	-0.28439512865177824	1.5457311753466725	-0.5487180479634197	-0.2688705964170275	1.5513372675273445	-0.566465702627831	-0.23849449455803473	1.5918385855218864	-0.4840949717757571	-0.23897176842449575	1.9868700773903445	-0.5417638288228714	-0.25730746994318265	2.0608275697084064	-0.5649022946689113	-0.26406325880871345	1.9884863161177986	-0.45080931411731906	-0.27500618358520224	1.9114957227111888	-0.386949147239422	-0.30089471522342165	1.8710198511723741	-0.4619454549509522	-0.2115066136093886	1.9876537385683903	-0.6252673278021804	-0.202017454369252	1.9086297598598694	-0.6558008580824607	-0.20304989978800114	1.8424952942675303	-0.7067342888702206
